<?xml version="1.0" encoding="utf-8"?>
<!-- Generator: Adobe Illustrator 19.2.1, SVG Export Plug-In . SVG Version: 6.00 Build 0)  -->
<svg version="1.1" id="Layer_1" xmlns="http://www.w3.org/2000/svg" xmlns:xlink="http://www.w3.org/1999/xlink" x="0px" y="0px"
	 viewBox="0 0 24 24" style="enable-background:new 0 0 24 24;" xml:space="preserve">
<style type="text/css">
	.st0{fill:#BFF1DC;}
	.st1{fill:#9B745A;}
	.st2{fill:#B78D63;}
	.st3{fill:#3F2B23;}
	.st4{fill:#684337;}
	.st5{fill:#C44726;}
	.st6{fill:url(#SVGID_1_);}
	.st7{fill:url(#SVGID_2_);}
</style>
<path class="st0" d="M0,24V2.7C0,1.2,1.2,0,2.7,0h18.6C22.8,0,24,1.2,24,2.7v18.6c0,1.5-1.2,2.7-2.7,2.7H0"/>
<path class="st1" d="M5.5,5.1c0,0-0.1-1.1-0.8-0.9C4.1,4.4,3.5,5.6,4.3,6.4S5.5,5.1,5.5,5.1z"/>
<path class="st1" d="M17.6,5.1c0,0,0.1-1.1,0.8-0.9c0.6,0.2,1.2,1.4,0.4,2.2C17.9,7.2,17.6,5.1,17.6,5.1z"/>
<path class="st2" d="M18.9,15.5c-0.1-1.8-0.1-3.5-0.1-5.2l0,0c0-0.4,0-0.9,0-1.3c0-4.2-1.3-7-5.8-7.2c-4.8-0.3-7.7,1-8.6,4.8
	C4.4,6.8,4.3,7,4.3,7.3c0,0.1,0,0.2,0,0.2c0,0.2-0.1,0.4-0.1,0.5c0,0.1,0,0.2,0,0.3c0,0.2,0,0.3-0.1,0.5C4,9,4,9.1,4,9.2
	c0,0.2,0,0.3,0,0.5c0,0.1,0,0.1,0,0.2l0,0c-0.2,2.7,0.1,5.4,0.7,7.8c2,0.5,7.4,1.6,11,0.5c1.5-0.4,2.6-0.8,3.4-1.2
	C19,16.5,18.9,16,18.9,15.5z"/>
<path class="st1" d="M10.3,9C11,9.7,12.1,10,13,9.9c0.4,0,0.9-0.3,1.3-0.6c0.3-0.3,0.5-0.6,0.6-1C14.9,8.2,15,8.1,15,8
	c0.3-0.7,0.5-1.6,1-2.2c0.5-0.6,1.6-1.1,2.3-0.6c-0.7-2-2.3-3.2-5.2-3.4C9.4,1.5,6.6,2.2,5.2,4.6C6,4.5,7,4.6,8,5.4
	C9.4,6.3,9.4,8.2,10.3,9z"/>
<ellipse class="st3" cx="8" cy="6.6" rx="0.7" ry="0.9"/>
<ellipse class="st3" cx="16.6" cy="6.6" rx="0.7" ry="0.9"/>
<path class="st4" d="M9.1,9.7c0,0,0.3,0.8,1.6,0.8c1.2,0,1.8-0.8,1.8-0.8s0.5,0.8,1.7,0.8s1.6-0.8,1.6-0.8s-1.1,0.7-1.8,0.5
	c-0.7-0.2-1.5-1-1.5-1s-0.9,0.9-1.6,1C10.2,10.3,9.9,10.2,9.1,9.7z"/>
<path class="st3" d="M14,7.4c1.5,1.3-1,2.5-1.5,2.5c-0.4,0-3.1-1.3-1.4-2.6C11.9,6.7,13.2,6.7,14,7.4z"/>
<path class="st5" d="M16.2,22.5l-6.1,0.7c-0.4,0-0.7-0.2-0.7-0.6l-0.9-7.4c0-0.4,0.2-0.7,0.6-0.7l6.1-0.7c0.4,0,0.7,0.2,0.7,0.6
	l0.9,7.4C16.8,22.1,16.5,22.4,16.2,22.5z"/>
<linearGradient id="SVGID_1_" gradientUnits="userSpaceOnUse" x1="5.913" y1="23.8974" x2="6.1733" y2="23.8974" gradientTransform="matrix(-23.648 0 0 23.648 160.1391 -549.1807)">
	<stop  offset="0" style="stop-color:#9B745A"/>
	<stop  offset="0.2399" style="stop-color:#946E55"/>
	<stop  offset="0.9944" style="stop-color:#825E46"/>
	<stop  offset="1" style="stop-color:#825E46"/>
</linearGradient>
<path class="st6" d="M20.3,15.5c-0.1-0.4-0.2-0.9-0.4-1.3c-0.1-0.3-0.3-0.5-0.5-0.8c-0.1-0.2-0.5-0.6-0.5-0.8l0,0.4
	c-0.1,0.4-0.3,1-1,1.7c-1.1,1.1-3.4,2.4-3.6,2.6c-0.4,0.4,0.4,1.6,1.4,1.8c0.9,0.2,3.6-1.3,3.6-1.3C20.2,17.4,20.4,16.4,20.3,15.5z"
	/>
<polygon class="st3" points="14.2,18.1 15.7,17.6 14.4,18.4 "/>
<polygon class="st3" points="14.9,18.8 16.3,18.3 15.2,19 "/>
<linearGradient id="SVGID_2_" gradientUnits="userSpaceOnUse" x1="-2.9312" y1="24.1405" x2="-2.6709" y2="24.1405" gradientTransform="matrix(31.0535 0 0 -31.0535 94.1572 766.2737)">
	<stop  offset="0" style="stop-color:#9B745A"/>
	<stop  offset="0.2399" style="stop-color:#946E55"/>
	<stop  offset="0.9944" style="stop-color:#825E46"/>
	<stop  offset="1" style="stop-color:#825E46"/>
</linearGradient>
<path class="st7" d="M3.1,16.4c-0.1-1.4,0.8-3.4,0.8-3.4s1,2.7,3.2,3.5c2.6,0.9,3.6,1,3.9,1.2c0.5,0.3,0.2,1.7-0.7,2.2
	c-0.8,0.5-4.1,0-4.1,0C5,19.8,3.3,19.4,3.1,16.4z"/>
<polygon class="st3" points="10.9,19.4 9.4,19.4 10.6,19.7 "/>
<polygon class="st3" points="11.2,18.4 9.7,18.4 11.2,18.7 "/>
</svg>
