<?xml version="1.0" encoding="utf-8"?>
<!-- Generator: Adobe Illustrator 19.2.1, SVG Export Plug-In . SVG Version: 6.00 Build 0)  -->
<svg version="1.1" id="Layer_1" xmlns="http://www.w3.org/2000/svg" xmlns:xlink="http://www.w3.org/1999/xlink" x="0px" y="0px"
	 viewBox="0 0 150 150" style="enable-background:new 0 0 150 150;" xml:space="preserve">
<style type="text/css">
	.st0{fill:#BFF1DC;}
	.st1{opacity:0.3;fill:#45B79E;}
	.st2{fill:url(#SVGID_1_);}
	.st3{fill:#9B745A;}
	.st4{opacity:0.3;fill:#4F302C;}
	.st5{fill:url(#SVGID_2_);}
	.st6{fill:url(#SVGID_3_);}
	.st7{fill:#B78D63;}
	.st8{fill:#3F2B23;}
	.st9{fill:#684337;}
	.st10{fill:#C44726;}
	.st11{fill:url(#SVGID_4_);}
	.st12{fill:url(#SVGID_5_);}
	.st13{clip-path:url(#SVGID_7_);fill:#3F2B23;}
	.st14{clip-path:url(#SVGID_9_);fill:#3F2B23;}
</style>
<rect x="0" y="0" transform="matrix(4.489635e-011 1 -1 4.489635e-011 150.0035 -3.252870e-003)" class="st0" width="150" height="150"/>
<path class="st1" d="M150,150l-63.6,0c-0.7,0-1.4-0.2-2-0.7l-52.2-39l34.5-87.9L149.8,84L150,150z"/>
<linearGradient id="SVGID_1_" gradientUnits="userSpaceOnUse" x1="12.451" y1="98.6869" x2="141.0784" y2="98.6869">
	<stop  offset="0" style="stop-color:#9B745A"/>
	<stop  offset="3.201970e-002" style="stop-color:#B78D63"/>
	<stop  offset="0.3322" style="stop-color:#AD8460"/>
	<stop  offset="0.9944" style="stop-color:#9B745A"/>
</linearGradient>
<path class="st2" d="M140.9,80.6c-0.1-0.7-0.2-1.3-0.3-2c-0.1-0.3-0.4-0.3-0.6-0.1c-0.9,2.1-3.6,6.7-6.2,9.6
	c-12.1,13.5-31.9,19-55.5-0.9c-5-4.2-7.7-10.4-8.9-16.8c-3.2,1.4-7.5,3-13.2,4.6c-14,4-36.1-2.7-43.8-4.6
	c1.7,13.6,7.1,25.4,12.8,32.5c24.9,31.2,69.4,27,91.5,15.6C130.2,111.6,142.9,96.4,140.9,80.6z"/>
<path class="st3" d="M17.2,24.6c0,0-0.5-4.4-3-3.5c-2.5,0.8-4.6,5.4-1.4,8.6S17.2,24.6,17.2,24.6z"/>
<path class="st3" d="M63.7,24.6c0,0,0.5-4.4,3-3.5c2.5,0.8,4.6,5.4,1.4,8.6S63.7,24.6,63.7,24.6z"/>
<path class="st4" d="M63.1,94.5l-23.4,2.8c-1.4,0.2-2.6-0.8-2.8-2.2l-3.4-28.5c-0.2-1.4,0.8-2.6,2.2-2.8L59.1,61
	c1.4-0.2,2.6,0.8,2.8,2.2l3.4,28.5C65.4,93.1,64.5,94.3,63.1,94.5z"/>
<linearGradient id="SVGID_2_" gradientUnits="userSpaceOnUse" x1="53.6551" y1="129.5278" x2="90.9981" y2="129.5278">
	<stop  offset="0" style="stop-color:#9B745A"/>
	<stop  offset="0.2399" style="stop-color:#946E55"/>
	<stop  offset="0.9944" style="stop-color:#825E46"/>
</linearGradient>
<path class="st5" d="M65.2,119.5c0,0,10.8,3.3,17.5,7.1c6.7,3.8,7.8,6.4,8.2,7.8c0.5,1.4-4.3,6.3-10.2,5
	c-5.9-1.3-27.1-16.4-27.1-16.4S56.7,118.8,65.2,119.5z"/>
<linearGradient id="SVGID_3_" gradientUnits="userSpaceOnUse" x1="91.8018" y1="104.5338" x2="121.0702" y2="104.5338">
	<stop  offset="0" style="stop-color:#9B745A"/>
	<stop  offset="0.2399" style="stop-color:#946E55"/>
	<stop  offset="0.9944" style="stop-color:#825E46"/>
</linearGradient>
<path class="st6" d="M91.8,97.4c0,0,0.2,5.5,6.7,9.5c8.5,5.2,11.9,4.8,15.7,4.8s8.5-3.6,6.4-6.2C118.5,102.8,96.1,98.9,91.8,97.4z"
	/>
<path class="st7" d="M68.8,64.8c-0.3-6.9-0.3-13.3-0.3-20c0,0,0,0,0,0c0-1.7,0-3.4,0-5.2c-0.1-16.2-5.1-26.7-22.2-27.8
	c-18.6-1.2-29.7,3.8-33.2,18.4c-0.2,1-0.5,2-0.7,3c-0.1,0.3-0.1,0.6-0.2,0.9c-0.1,0.7-0.3,1.4-0.4,2.1c-0.1,0.4-0.1,0.7-0.2,1.1
	c-0.1,0.6-0.2,1.3-0.3,1.9c0,0.4-0.1,0.8-0.1,1.1c-0.1,0.6-0.1,1.2-0.2,1.9c0,0.2,0,0.4-0.1,0.6c0,0,0,0,0,0
	c-0.8,10.5,0.3,20.7,2.8,30c7.7,1.8,28.3,6,42.3,2.1c5.7-1.6,10-3.2,13.2-4.5C69.1,68.5,68.9,66.7,68.8,64.8z"/>
<g>
	<path class="st3" d="M35.7,39.9c2.8,2.5,6.8,3.5,10.4,3.1c1.6-0.2,3.6-1.1,4.8-2.2c1.2-1.1,1.9-2.3,2.4-3.8
		c0.1-0.4,0.3-0.8,0.4-1.2c1.1-2.8,1.9-6.2,3.9-8.6c2-2.5,6.1-4.2,8.8-2.2c-2.8-7.7-8.9-12.5-20.1-13.2
		c-14.1-0.9-24.9,1.8-30.2,10.9c3.2-0.4,6.7,0,10.9,3C32,29.3,32.3,36.7,35.7,39.9z"/>
</g>
<ellipse class="st8" cx="26.7" cy="30.6" rx="2.7" ry="3.5"/>
<ellipse class="st8" cx="59.8" cy="30.6" rx="2.7" ry="3.5"/>
<path class="st9" d="M31.2,42.4c0,0,1.3,2.9,6.1,3.1c4.8,0.1,6.9-3.1,6.9-3.1s2.1,3.1,6.5,3.1s6.2-3.1,6.2-3.1s-4.1,2.7-6.9,2.1
	c-2.8-0.6-5.9-3.7-5.9-3.7s-3.3,3.6-6,3.7C35.4,44.6,34.1,44.2,31.2,42.4z"/>
<path class="st8" d="M51.6,36.7c0,3.5-6,6.4-7.6,6.4c-1.2,0-7.6-2.9-7.6-6.4S51.6,33.1,51.6,36.7z"/>
<path class="st10" d="M58.3,91.4l-23.4,2.8c-1.4,0.2-2.6-0.8-2.8-2.2l-3.4-28.5c-0.2-1.4,0.8-2.6,2.2-2.8L54.4,58
	c1.4-0.2,2.6,0.8,2.8,2.2l3.4,28.5C60.7,90,59.7,91.3,58.3,91.4z"/>
<linearGradient id="SVGID_4_" gradientUnits="userSpaceOnUse" x1="74.139" y1="66.3707" x2="50.4911" y2="66.3707">
	<stop  offset="0" style="stop-color:#9B745A"/>
	<stop  offset="0.2399" style="stop-color:#946E55"/>
	<stop  offset="0.9944" style="stop-color:#825E46"/>
</linearGradient>
<path class="st11" d="M74,64.6c-0.3-1.7-0.9-3.4-1.6-4.9c-0.6-1.1-1.2-2.1-1.8-3.1c-0.4-0.6-1.9-2.2-1.8-2.9l-0.1,1.5
	c-0.2,1.4-1,3.8-3.7,6.6c-4.1,4.2-13.2,9.4-14,10.1c-1.6,1.6,1.7,6.3,5.3,7.1c3.6,0.8,13.8-5,13.8-5C73.6,71.9,74.6,68.2,74,64.6z"
	/>
<polygon class="st8" points="50.8,74.6 56.3,72.7 51.5,75.7 "/>
<polygon class="st8" points="53.2,77.5 58.7,75.6 54.6,78.2 "/>
<linearGradient id="SVGID_5_" gradientUnits="userSpaceOnUse" x1="8.1572" y1="68.9886" x2="39.2107" y2="68.9886">
	<stop  offset="0" style="stop-color:#9B745A"/>
	<stop  offset="0.2399" style="stop-color:#946E55"/>
	<stop  offset="0.9944" style="stop-color:#825E46"/>
</linearGradient>
<path class="st12" d="M8.2,68.2c-0.2-5.4,3-13,3-13s3.9,10.5,12.2,13.6c9.8,3.6,13.8,4,14.8,4.5c2.1,1,0.6,6.5-2.5,8.5
	c-3.1,2-15.9,0.1-15.9,0.1C15.1,81,8.7,79.7,8.2,68.2z"/>
<polygon class="st8" points="38,79.8 32.2,79.8 37,80.9 "/>
<polygon class="st8" points="39.2,75.8 33.5,75.9 39,77.1 "/>
<g>
	<defs>
		<path id="SVGID_6_" d="M91.8,97.4c0,0,0.2,5.5,6.7,9.5c8.5,5.2,11.9,4.8,15.7,4.8s8.5-3.6,6.4-6.2
			C118.5,102.8,96.1,98.9,91.8,97.4z"/>
	</defs>
	<clipPath id="SVGID_7_">
		<use xlink:href="#SVGID_6_"  style="overflow:visible;"/>
	</clipPath>
	<polygon class="st13" points="109.1,107.1 115.8,112 117.7,110.9 	"/>
	<polygon class="st13" points="113.8,103.9 120.6,108.7 121.5,107.1 	"/>
</g>
<g>
	<defs>
		<path id="SVGID_8_" d="M65.2,119.5c0,0,10.8,3.3,17.5,7.1c6.7,3.8,7.8,6.4,8.2,7.8c0.5,1.4-4.3,6.3-10.2,5
			c-5.9-1.3-27.1-16.4-27.1-16.4S56.7,118.8,65.2,119.5z"/>
	</defs>
	<clipPath id="SVGID_9_">
		<use xlink:href="#SVGID_8_"  style="overflow:visible;"/>
	</clipPath>
	<polygon class="st14" points="77.6,133.4 84.1,140 86.3,139.4 	"/>
	<polygon class="st14" points="83.5,130.5 89.9,137.4 91.3,135.9 	"/>
</g>
</svg>
