<?xml version="1.0" encoding="utf-8"?>
<!-- Generator: Adobe Illustrator 19.2.1, SVG Export Plug-In . SVG Version: 6.00 Build 0)  -->
<svg version="1.1" id="Layer_1" xmlns="http://www.w3.org/2000/svg" xmlns:xlink="http://www.w3.org/1999/xlink" x="0px" y="0px"
	 viewBox="0 0 500 500" style="enable-background:new 0 0 500 500;" xml:space="preserve">
<style type="text/css">
	.st0{fill:url(#SVGID_1_);}
	.st1{fill:#9B755B;}
	.st2{opacity:0.3;fill:#50312D;enable-background:new    ;}
	.st3{fill:url(#SVGID_2_);}
	.st4{fill:url(#SVGID_3_);}
	.st5{fill:#B78D63;}
	.st6{fill:#402C24;}
	.st7{fill:#694438;}
	.st8{fill:#C54827;}
	.st9{fill:url(#SVGID_4_);}
	.st10{fill:url(#SVGID_5_);}
	.st11{clip-path:url(#SVGID_7_);fill:#402C24;}
	.st12{clip-path:url(#SVGID_9_);fill:#402C24;}
	.st13{clip-path:url(#SVGID_11_);fill:#402C24;}
	.st14{clip-path:url(#SVGID_13_);fill:#402C24;}
</style>
<linearGradient id="SVGID_1_" gradientUnits="userSpaceOnUse" x1="48.4906" y1="193.4305" x2="465.1343" y2="193.4305" gradientTransform="matrix(1 0 0 -1 0 518.6667)">
	<stop  offset="0" style="stop-color:#9B755B"/>
	<stop  offset="3.201970e-002" style="stop-color:#B78D63"/>
	<stop  offset="0.3322" style="stop-color:#AD8460"/>
	<stop  offset="0.9944" style="stop-color:#9B755B"/>
</linearGradient>
<path class="st0" d="M464.5,266.7c-0.3-2.3-0.6-4.2-1-6.5c-0.3-1-1.3-1-1.9-0.3c-2.9,6.8-11.7,21.7-20.1,31.1
	c-39.2,43.7-103.3,61.5-179.7-2.9c-16.2-13.6-24.9-33.7-28.8-54.4c-10.4,4.5-24.3,9.7-42.7,14.9c-45.3,12.9-116.9-8.7-141.8-14.9
	c5.5,44,23,82.2,41.4,105.2c80.6,101,224.7,87.4,296.2,50.5C429.8,367,470.9,317.8,464.5,266.7z"/>
<path class="st1" d="M64,85.4c0,0-1.6-14.2-9.7-11.3c-8.1,2.6-14.9,17.5-4.5,27.8S64,85.4,64,85.4z"/>
<path class="st1" d="M214.6,85.4c0,0,1.6-14.2,9.7-11.3c8.1,2.6,14.9,17.5,4.5,27.8S214.6,85.4,214.6,85.4z"/>
<path class="st2" d="M212.6,311.7l-75.7,9.1c-4.5,0.6-8.4-2.6-9.1-7.1l-11-92.3c-0.6-4.5,2.6-8.4,7.1-9.1l75.7-9.1
	c4.5-0.6,8.4,2.6,9.1,7.1l11,92.3C220.1,307.2,217.1,311,212.6,311.7z"/>
<linearGradient id="SVGID_2_" gradientUnits="userSpaceOnUse" x1="182.0378" y1="93.6167" x2="302.8979" y2="93.6167" gradientTransform="matrix(1 0 0 -1 0 518.6667)">
	<stop  offset="0" style="stop-color:#9B755B"/>
	<stop  offset="0.2399" style="stop-color:#946F56"/>
	<stop  offset="0.9944" style="stop-color:#835F47"/>
</linearGradient>
<path class="st3" d="M219.4,392.6c0,0,35,10.7,56.6,23c21.7,12.3,25.2,20.7,26.5,25.2c1.6,4.5-13.9,20.4-33,16.2
	s-87.7-53.1-87.7-53.1S191.9,390.4,219.4,392.6z"/>
<linearGradient id="SVGID_3_" gradientUnits="userSpaceOnUse" x1="305.5169" y1="174.4334" x2="400.2618" y2="174.4334" gradientTransform="matrix(1 0 0 -1 0 518.6667)">
	<stop  offset="0" style="stop-color:#9B755B"/>
	<stop  offset="0.2399" style="stop-color:#946F56"/>
	<stop  offset="0.9944" style="stop-color:#835F47"/>
</linearGradient>
<path class="st4" d="M305.5,321.1c0,0,0.6,17.8,21.7,30.8c27.5,16.8,38.5,15.5,50.8,15.5s27.5-11.7,20.7-20.1
	C391.9,338.6,319.4,325.9,305.5,321.1z"/>
<path class="st5" d="M231.1,215.5c-1-22.3-1-43.1-1-64.7l0,0c0-5.5,0-11,0-16.8c-0.3-52.4-16.5-86.4-71.9-90
	C98,40.1,62.1,56.3,50.8,103.5c-0.6,3.2-1.6,6.5-2.3,9.7c-0.3,1-0.3,1.9-0.6,2.9c-0.3,2.3-1,4.5-1.3,6.8c-0.3,1.3-0.3,2.3-0.6,3.6
	c-0.3,1.9-0.6,4.2-1,6.2c0,1.3-0.3,2.6-0.3,3.6c-0.3,1.9-0.3,3.9-0.6,6.2c0,0.6,0,1.3-0.3,1.9l0,0c-2.6,34,1,67,9.1,97.1
	c24.9,5.8,91.6,19.4,136.9,6.8c18.5-5.2,32.4-10.4,42.7-14.6C232,227.5,231.4,221.7,231.1,215.5z"/>
<g>
	<path class="st1" d="M123.9,134.9c9.1,8.1,22,11.3,33.7,10c5.2-0.6,11.7-3.6,15.5-7.1c3.9-3.6,6.2-7.4,7.8-12.3
		c0.3-1.3,1-2.6,1.3-3.9c3.6-9.1,6.2-20.1,12.6-27.8c6.5-8.1,19.7-13.6,28.5-7.1c-9.1-24.9-28.8-40.5-65.1-42.7
		c-45.6-2.9-80.6,5.8-97.8,35.3c10.4-1.3,21.7,0,35.3,9.7C111.9,100.6,112.9,124.6,123.9,134.9z"/>
</g>
<ellipse class="st6" cx="94.8" cy="104.8" rx="8.7" ry="11.3"/>
<ellipse class="st6" cx="201.9" cy="104.8" rx="8.7" ry="11.3"/>
<path class="st7" d="M109.3,143c0,0,4.2,9.4,19.7,10c15.5,0.3,22.3-10,22.3-10s6.8,10,21,10c14.2,0,20.1-10,20.1-10
	s-13.3,8.7-22.3,6.8c-9.1-1.9-19.1-12-19.1-12s-10.7,11.7-19.4,12S118.7,148.9,109.3,143z"/>
<path class="st6" d="M175.4,124.6c0,11.3-19.4,20.7-24.6,20.7c-3.9,0-24.6-9.4-24.6-20.7S175.4,112.9,175.4,124.6z"/>
<path class="st8" d="M197.1,301.7l-75.7,9.1c-4.5,0.6-8.4-2.6-9.1-7.1l-11-92.3c-0.6-4.5,2.6-8.4,7.1-9.1l76.1-8.7
	c4.5-0.6,8.4,2.6,9.1,7.1l11,92.3C204.8,297.1,201.6,301.3,197.1,301.7z"/>
<linearGradient id="SVGID_4_" gradientUnits="userSpaceOnUse" x1="248.3464" y1="297.9798" x2="171.7956" y2="297.9798" gradientTransform="matrix(1 0 0 -1 0 518.6667)">
	<stop  offset="0" style="stop-color:#9B755B"/>
	<stop  offset="0.2399" style="stop-color:#946F56"/>
	<stop  offset="0.9944" style="stop-color:#835F47"/>
</linearGradient>
<path class="st9" d="M247.9,214.9c-1-5.5-2.9-11-5.2-15.9c-1.9-3.6-3.9-6.8-5.8-10c-1.3-1.9-6.2-7.1-5.8-9.4l-0.3,4.9
	c-0.6,4.5-3.2,12.3-12,21.4c-13.3,13.6-42.7,30.4-45.3,32.7c-5.2,5.2,5.5,20.4,17.2,23c11.7,2.6,44.7-16.2,44.7-16.2
	C246.6,238.5,249.8,226.6,247.9,214.9z"/>
<polygon class="st6" points="172.8,247.3 190.6,241.1 175.1,250.8 "/>
<polygon class="st6" points="180.6,256.7 198.4,250.5 185.1,258.9 "/>
<linearGradient id="SVGID_5_" gradientUnits="userSpaceOnUse" x1="34.7563" y1="289.6607" x2="135.2797" y2="289.6607" gradientTransform="matrix(1 0 0 -1 0 518.6667)">
	<stop  offset="0" style="stop-color:#9B755B"/>
	<stop  offset="0.2399" style="stop-color:#946F56"/>
	<stop  offset="0.9944" style="stop-color:#835F47"/>
</linearGradient>
<path class="st10" d="M34.9,226.6c-0.6-17.5,9.7-42.1,9.7-42.1s12.6,34,39.5,44c31.7,11.7,44.7,12.9,47.9,14.6
	c6.8,3.2,1.9,21-8.1,27.5s-51.5,0.3-51.5,0.3C57.2,268,36.5,263.8,34.9,226.6z"/>
<polygon class="st6" points="131.4,264.1 112.6,264.1 128.1,267.7 "/>
<polygon class="st6" points="135.2,251.2 116.8,251.5 134.6,255.4 "/>
<g>
	<g>
		<defs>
			<path id="SVGID_6_" d="M305.5,321.1c0,0,0.6,17.8,21.7,30.8c27.5,16.8,38.5,15.5,50.8,15.5s27.5-11.7,20.7-20.1
				C391.9,338.6,319.4,325.9,305.5,321.1z"/>
		</defs>
		<clipPath id="SVGID_7_">
			<use xlink:href="#SVGID_6_"  style="overflow:visible;"/>
		</clipPath>
		<polygon class="st11" points="361.5,352.5 383.2,368.3 389.4,364.8 		"/>
	</g>
	<g>
		<defs>
			<path id="SVGID_8_" d="M305.5,321.1c0,0,0.6,17.8,21.7,30.8c27.5,16.8,38.5,15.5,50.8,15.5s27.5-11.7,20.7-20.1
				C391.9,338.6,319.4,325.9,305.5,321.1z"/>
		</defs>
		<clipPath id="SVGID_9_">
			<use xlink:href="#SVGID_8_"  style="overflow:visible;"/>
		</clipPath>
		<polygon class="st12" points="376.7,342.1 398.7,357.7 401.7,352.5 		"/>
	</g>
</g>
<g>
	<g>
		<defs>
			<path id="SVGID_10_" d="M219.4,392.6c0,0,35,10.7,56.6,23c21.7,12.3,25.2,20.7,26.5,25.2c1.6,4.5-13.9,20.4-33,16.2
				s-87.7-53.1-87.7-53.1S191.9,390.4,219.4,392.6z"/>
		</defs>
		<clipPath id="SVGID_11_">
			<use xlink:href="#SVGID_10_"  style="overflow:visible;"/>
		</clipPath>
		<polygon class="st13" points="259.5,437.6 280.6,459 287.7,457 		"/>
	</g>
	<g>
		<defs>
			<path id="SVGID_12_" d="M219.4,392.6c0,0,35,10.7,56.6,23c21.7,12.3,25.2,20.7,26.5,25.2c1.6,4.5-13.9,20.4-33,16.2
				s-87.7-53.1-87.7-53.1S191.9,390.4,219.4,392.6z"/>
		</defs>
		<clipPath id="SVGID_13_">
			<use xlink:href="#SVGID_12_"  style="overflow:visible;"/>
		</clipPath>
		<polygon class="st14" points="278.6,428.2 299.4,450.6 303.9,445.7 		"/>
	</g>
</g>
</svg>
