<?xml version="1.0" standalone="no"?>
<!DOCTYPE svg PUBLIC "-//W3C//DTD SVG 20010904//EN"
 "http://www.w3.org/TR/2001/REC-SVG-20010904/DTD/svg10.dtd">
<svg version="1.0" xmlns="http://www.w3.org/2000/svg"
 width="700.000000pt" height="700.000000pt" viewBox="0 0 700.000000 700.000000"
 preserveAspectRatio="xMidYMid meet">
<metadata>
Created by potrace 1.11, written by Peter Selinger 2001-2013
</metadata>
<g transform="translate(0.000000,700.000000) scale(0.100000,-0.100000)"
fill="#000000" stroke="none">
<path d="M1779 6387 c-2 -3 -38 -8 -78 -11 -41 -4 -77 -9 -80 -11 -4 -1 -27
-6 -53 -9 -135 -18 -321 -90 -443 -172 -95 -64 -153 -118 -216 -200 l-45 -60
-31 23 c-37 29 -76 23 -126 -18 -97 -80 -106 -255 -18 -347 l22 -22 -25 -118
c-35 -164 -54 -275 -61 -361 -4 -41 -9 -84 -12 -95 -3 -12 -6 -156 -7 -321
l-2 -300 -37 -115 c-61 -191 -76 -277 -72 -425 3 -144 25 -248 72 -343 31 -61
121 -160 167 -183 26 -13 35 -33 90 -199 93 -276 170 -443 307 -661 102 -164
277 -368 439 -514 215 -193 487 -370 730 -475 41 -18 93 -40 115 -50 22 -9 52
-20 66 -23 14 -4 62 -31 105 -61 345 -238 797 -530 909 -587 17 -9 71 -36 120
-62 116 -59 163 -70 277 -65 81 3 102 7 159 35 107 53 190 138 183 186 -11 77
-111 190 -250 282 l-97 65 39 1 c22 0 48 2 58 4 11 2 53 6 93 10 125 10 165
15 258 31 50 8 104 17 120 20 32 4 146 29 205 44 95 23 132 33 210 57 524 158
908 396 1222 758 208 241 365 562 406 832 15 104 6 402 -13 434 -7 11 -35 -7
-35 -23 0 -13 -87 -163 -138 -238 -80 -116 -141 -188 -250 -291 -93 -88 -275
-223 -337 -250 -11 -5 -27 -13 -35 -19 -72 -48 -336 -135 -445 -146 -22 -3
-53 -7 -70 -9 -42 -7 -258 -7 -286 -1 -13 3 -44 8 -69 10 -182 19 -439 109
-665 233 -191 105 -444 291 -564 413 -108 109 -208 279 -267 453 l-24 71 46
40 c144 123 169 326 69 566 -26 63 -95 182 -123 215 -10 12 -27 36 -38 54
l-19 33 -6 -34 c-3 -18 -6 154 -8 382 -2 471 -8 592 -30 691 -8 37 -7 43 21
75 78 89 83 214 11 312 -42 56 -121 83 -158 52 -8 -7 -18 2 -33 28 -29 52
-124 155 -191 206 -125 96 -315 165 -525 190 -107 13 -525 23 -537 13z"/>
</g>
</svg>
