<?xml version="1.0" standalone="no"?>
<!DOCTYPE svg PUBLIC "-//W3C//DTD SVG 20010904//EN"
 "http://www.w3.org/TR/2001/REC-SVG-20010904/DTD/svg10.dtd">
<svg version="1.0" xmlns="http://www.w3.org/2000/svg"
 width="384.000000pt" height="384.000000pt" viewBox="0 0 384.000000 384.000000"
 preserveAspectRatio="xMidYMid meet">
<metadata>
Created by potrace 1.11, written by Peter Selinger 2001-2013
</metadata>
<g transform="translate(0.000000,384.000000) scale(0.100000,-0.100000)"
fill="#000000" stroke="none">
<path d="M810 3536 c-158 -29 -251 -74 -343 -168 -55 -56 -71 -67 -83 -58 -39
33 -104 -34 -104 -106 0 -35 19 -79 41 -94 4 -3 -1 -55 -11 -115 -26 -155 -43
-368 -35 -441 5 -53 2 -75 -23 -150 -43 -130 -55 -214 -42 -304 14 -102 50
-173 109 -215 44 -32 49 -41 80 -132 41 -122 123 -288 193 -390 143 -209 424
-428 666 -520 35 -13 71 -31 80 -39 33 -34 423 -285 522 -337 130 -69 260 -96
260 -56 0 5 5 9 11 9 6 0 24 9 40 21 16 11 33 18 38 15 16 -10 36 26 32 58 -1
17 -12 46 -24 64 -19 29 -100 97 -153 128 -14 8 2 12 79 18 338 23 683 138
900 299 195 145 328 320 398 527 29 86 33 107 33 217 1 67 -3 125 -8 130 -5 4
-10 3 -13 -3 -17 -48 -111 -183 -173 -248 -119 -124 -237 -199 -390 -248 -65
-20 -95 -23 -220 -22 -128 0 -155 4 -235 28 -161 49 -339 150 -484 273 -101
86 -165 178 -207 296 -14 40 -14 40 25 82 63 68 74 178 29 281 -23 55 -90 154
-99 148 -11 -7 -9 -45 -18 310 l-8 310 24 34 c27 40 29 69 9 117 -18 43 -58
69 -91 61 -14 -4 -25 -2 -25 3 0 5 -23 34 -51 65 -56 61 -150 114 -254 142
-83 22 -374 28 -475 10z m767 -1683 c-3 -10 -5 -2 -5 17 0 19 2 27 5 18 2 -10
2 -26 0 -35z m10 -90 c-3 -10 -5 -2 -5 17 0 19 2 27 5 18 2 -10 2 -26 0 -35z
m10 -90 c-3 -10 -5 -2 -5 17 0 19 2 27 5 18 2 -10 2 -26 0 -35z m13 -76 c0
-24 -7 -52 -16 -63 -15 -18 -15 -18 -5 3 6 12 11 40 11 62 0 23 2 41 5 41 3 0
5 -19 5 -43z m-93 -93 c-3 -3 -12 -4 -19 -1 -8 3 -5 6 6 6 11 1 17 -2 13 -5z
m-170 -20 c-3 -3 -12 -4 -19 -1 -8 3 -5 6 6 6 11 1 17 -2 13 -5z m-80 -10 c-3
-3 -12 -4 -19 -1 -8 3 -5 6 6 6 11 1 17 -2 13 -5z m-84 -11 c-7 -2 -19 -2 -25
0 -7 3 -2 5 12 5 14 0 19 -2 13 -5z m-80 -10 c-7 -2 -19 -2 -25 0 -7 3 -2 5
12 5 14 0 19 -2 13 -5z m-80 -10 c-7 -2 -19 -2 -25 0 -7 3 -2 5 12 5 14 0 19
-2 13 -5z"/>
</g>
</svg>
