<?xml version="1.0" standalone="no"?>
<!DOCTYPE svg PUBLIC "-//W3C//DTD SVG 20010904//EN"
 "http://www.w3.org/TR/2001/REC-SVG-20010904/DTD/svg10.dtd">
<svg version="1.0" xmlns="http://www.w3.org/2000/svg"
 width="384.000000pt" height="384.000000pt" viewBox="0 0 384.000000 384.000000"
 preserveAspectRatio="xMidYMid meet">
<metadata>
Created by potrace 1.11, written by Peter Selinger 2001-2013
</metadata>
<g transform="translate(0.000000,384.000000) scale(0.100000,-0.100000)"
fill="#000000" stroke="none">
<path d="M825 3540 c-156 -25 -263 -76 -357 -170 -52 -52 -70 -65 -83 -57 -27
14 -64 -1 -85 -36 -27 -44 -26 -106 3 -149 l24 -34 -18 -104 c-25 -148 -42
-362 -36 -439 5 -56 1 -79 -23 -151 -42 -123 -54 -214 -40 -302 15 -101 51
-172 109 -213 43 -31 48 -40 80 -136 43 -125 130 -302 196 -395 67 -94 232
-257 337 -332 98 -70 218 -137 323 -178 39 -15 77 -35 85 -43 40 -39 448 -299
545 -346 122 -60 202 -77 228 -50 9 8 20 15 25 15 5 0 21 9 36 21 14 11 30 18
35 15 16 -10 36 25 33 58 -6 56 -56 112 -172 189 -24 17 -24 17 27 17 197 0
569 93 763 190 314 158 545 434 605 725 16 77 20 180 9 234 -7 35 -20 40 -29
11 -15 -47 -128 -201 -196 -266 -88 -84 -144 -123 -242 -169 -118 -56 -184
-70 -337 -70 -110 1 -150 5 -215 23 -258 74 -579 301 -665 471 -18 36 -39 83
-46 105 -14 40 -14 40 21 76 67 68 79 169 33 284 -24 62 -87 158 -99 150 -5
-3 -9 67 -9 168 0 95 -5 235 -10 310 l-10 137 25 37 c30 44 32 88 5 131 -23
39 -54 57 -86 49 -13 -4 -24 -2 -24 3 0 5 -22 34 -50 64 -57 63 -156 119 -251
142 -76 19 -374 29 -464 15z m752 -1672 c-3 -8 -6 -5 -6 6 -1 11 2 17 5 13 3
-3 4 -12 1 -19z m10 -100 c-3 -7 -5 -2 -5 12 0 14 2 19 5 13 2 -7 2 -19 0 -25z
m10 -95 c-3 -10 -5 -2 -5 17 0 19 2 27 5 18 2 -10 2 -26 0 -35z m10 -105 c-2
-13 -4 -3 -4 22 0 25 2 35 4 23 2 -13 2 -33 0 -45z"/>
</g>
</svg>
